# xmcd
#
# Track frame offsets:
#	180
#	12436
#	26224
#	39411
#	51585
#	61065
#	73456
#	81071
#	94430
#	103943
#	115363
#	126988
#	136979
#	150319
#	162101
#	172651
#
# Disc length: 2431 seconds
#
# Revision: 1
# Processed by: cddbd v1.5.2PL0 Copyright (c) Steve Scherf et al.
# Submitted via: audiograbber 1.83.01
#
DISCID=dc097d10
DTITLE=Various Artist - Country Legends Vol.2 - CD2
DYEAR=2005
DGENRE=Country
TTITLE0=HANK PENNY - I'm Singing The Blues
TTITLE1=BILL MONROE - Blue Moon Of Kentucky
TTITLE2=TEX WILLIAMS - I Got Texas In My Soull
TTITLE3=THE DELMORE BROTHERS - Hillbilly Boogie
TTITLE4=BOB WILLS - Get Along Home Cindy
TTITLE5=LONE STAR PLAYBOYS - Banjo Boogie
TTITLE6=BOB WILLS - Cotton Eyed Joe
TTITLE7=JIMMY HEAP - Dessau Waltz
TTITLE8=TEX WILLIAMS - Drop Dead
TTITLE9=PEE WEE KING - Bull Fiddle Boogie
TTITLE10=HANK WILLIAMS - Why Should We Try Anymore
TTITLE11=LEFTY FRIZZELL - My Baby's Just Like Money
TTITLE12=LEON MC AULIFFE - Blue Guitar Stomp
TTITLE13=JOHNNY BOND - Sick, Sober And Sorry
TTITLE14=SPADE COOLEY  - Indian Summer
TTITLE15=HANK WILLIAMS - Honky Tonk Blues
EXTD=
EXTT0=
EXTT1=
EXTT2=
EXTT3=
EXTT4=
EXTT5=
EXTT6=
EXTT7=
EXTT8=
EXTT9=
EXTT10=
EXTT11=
EXTT12=
EXTT13=
EXTT14=
EXTT15=
PLAYORDER=
